<?xml version="1.0" encoding="UTF-8" standalone="no"?>
<svg
   width="24"
   height="24"
   viewBox="0 0 24 24"
   fill="none"
   stroke="currentColor"
   stroke-width="2"
   stroke-linecap="round"
   stroke-linejoin="round"
   class="icon icon-tabler icons-tabler-outline icon-tabler-bulb-off"
   version="1.1"
   id="svg5"
   sodipodi:docname="light_off.svg"
   inkscape:export-filename="light_fluoro_off.png"
   inkscape:export-xdpi="472.62"
   inkscape:export-ydpi="472.62"
   inkscape:version="1.4.3 (0d15f75042, 2025-12-25)"
   xmlns:inkscape="http://www.inkscape.org/namespaces/inkscape"
   xmlns:sodipodi="http://sodipodi.sourceforge.net/DTD/sodipodi-0.dtd"
   xmlns="http://www.w3.org/2000/svg"
   xmlns:svg="http://www.w3.org/2000/svg">
  <defs
     id="defs5" />
  <sodipodi:namedview
     id="namedview5"
     pagecolor="#505050"
     bordercolor="#eeeeee"
     borderopacity="1"
     inkscape:showpageshadow="0"
     inkscape:pageopacity="0"
     inkscape:pagecheckerboard="0"
     inkscape:deskcolor="#d1d1d1"
     inkscape:zoom="12.908477"
     inkscape:cx="16.810659"
     inkscape:cy="6.2362122"
     inkscape:window-width="1691"
     inkscape:window-height="1190"
     inkscape:window-x="26"
     inkscape:window-y="23"
     inkscape:window-maximized="0"
     inkscape:current-layer="svg5" />
  <rect
     style="color:#000000;overflow:visible;fill:#ff5600;fill-opacity:1;stroke:#ff5600;stroke-width:2;stroke-linejoin:round;stroke-miterlimit:10;stroke-opacity:1"
     id="rect1"
     width="24"
     height="24"
     x="0"
     y="0"
     ry="2.5" />
  <path
     d="M3 12h1m8 -9v1m8 8h1m-15.4 -6.4l.7 .7m12.1 -.7l-.7 .7"
     id="path2"
     style="stroke:#000000;stroke-opacity:1" />
  <path
     d="M11.089 7.083a5 5 0 0 1 5.826 5.84m-1.378 2.611a5.012 5.012 0 0 1 -.537 .466a3.5 3.5 0 0 0 -1 3a2 2 0 1 1 -4 0a3.5 3.5 0 0 0 -1 -3a5 5 0 0 1 -.528 -7.544"
     id="path3"
     style="stroke:#000000;stroke-opacity:1" />
  <path
     d="M9.7 17h4.6"
     id="path4"
     style="stroke:#000000;stroke-opacity:1" />
  <path
     d="M3 3l18 18"
     id="path5"
     style="stroke:#000000;stroke-opacity:1" />
  <g
     id="g1"
     transform="translate(-17.357291,0.69473226)"
     style="display:inline">
    <path
       d="m 21.36741,19.319841 a 1.4625498,1.4625498 0 0 1 0,2.340079"
       id="path2-7"
       style="stroke-width:1;stroke-dasharray:none" />
    <path
       d="m 22.157187,18.442311 a 2.6325897,2.6325897 0 0 1 0,4.09514"
       id="path3-5"
       style="stroke-width:1;stroke-dasharray:none" />
    <path
       d="m 18.73482,21.367411 h -0.585019 a 0.29250996,0.29250996 0 0 1 -0.29251,-0.29251 v -1.17004 a 0.29250996,0.29250996 0 0 1 0.29251,-0.29251 h 0.585019 l 1.023785,-1.316295 a 0.23400797,0.23400797 0 0 1 0.438765,0.146255 v 4.09514 a 0.23400797,0.23400797 0 0 1 -0.438765,0.146254 L 18.73482,21.367411"
       id="path4-3"
       style="stroke-width:1;stroke-dasharray:none" />
  </g>
</svg>
